<?xml version="1.0" standalone="no"?>
<!DOCTYPE svg PUBLIC "-//W3C//DTD SVG 20010904//EN"
 "http://www.w3.org/TR/2001/REC-SVG-20010904/DTD/svg10.dtd">
<svg version="1.0" xmlns="http://www.w3.org/2000/svg"
 width="500.000000pt" height="500.000000pt" viewBox="0 0 500.000000 500.000000"
 preserveAspectRatio="xMidYMid meet">
<metadata>
Created by potrace 1.14, written by Peter Selinger 2001-2017
</metadata>
<g transform="translate(0.000000,500.000000) scale(0.100000,-0.100000)"
fill="#000000" stroke="none">
<path d="M2505 3155 c0 -253 1 -355 2 -227 2 128 2 335 0 460 -1 125 -2 20 -2
-233z"/>
<path d="M1750 3174 c-146 -381 -181 -476 -171 -470 5 3 37 82 72 176 35 93
66 170 69 170 3 0 27 -60 54 -133 85 -230 77 -217 136 -217 27 0 50 1 50 3 0
11 -183 484 -190 491 -6 6 -14 -2 -20 -20z"/>
<path d="M2734 3171 c3 -4 19 -11 35 -14 56 -11 65 -47 71 -262 l5 -190 53 -3
52 -3 0 154 c0 85 5 178 10 208 11 59 42 99 77 99 13 0 23 5 23 10 0 6 -62 10
-166 10 -91 0 -163 -4 -160 -9z"/>
<path d="M3467 3153 c27 -41 24 -153 -6 -220 -28 -62 -113 -147 -194 -193 -31
-17 -57 -34 -57 -37 0 -3 26 -3 58 -1 108 8 253 117 308 233 29 60 33 169 9
215 -15 28 -19 30 -75 30 l-60 0 17 -27z"/>
<path d="M1712 2734 c-12 -8 -22 -20 -22 -26 0 -6 10 -2 23 10 31 29 63 28 72
0 4 -15 8 -18 12 -10 7 18 -16 42 -41 42 -12 0 -32 -7 -44 -16z"/>
<path d="M1051 2552 c-33 -65 -42 -102 -15 -64 20 30 80 31 89 2 3 -11 10 -20
16 -20 5 0 -2 25 -15 55 -43 97 -40 96 -75 27z m47 3 c16 -35 16 -35 -17 -35
-28 0 -29 1 -18 30 14 37 20 37 35 5z"/>
<path d="M1458 2604 c-5 -4 -8 -36 -8 -71 l0 -63 45 0 c32 0 51 6 65 20 25 25
26 72 2 93 -20 18 -93 33 -104 21z m94 -31 c10 -9 18 -24 18 -35 0 -28 -36
-58 -70 -58 -30 0 -30 1 -30 55 l0 55 32 0 c17 0 40 -7 50 -17z"/>
<path d="M1678 2604 c-12 -11 -10 -134 2 -134 6 0 10 9 10 20 0 15 7 20 25 20
14 0 30 -9 37 -20 7 -11 16 -20 21 -20 4 0 1 11 -8 24 -14 21 -14 25 0 36 19
16 19 44 1 59 -18 15 -79 25 -88 15z m81 -28 c19 -23 2 -46 -35 -46 -31 0 -34
3 -34 30 0 26 3 30 29 30 16 0 34 -6 40 -14z"/>
<path d="M1883 2540 c0 -41 2 -58 4 -37 2 20 2 54 0 75 -2 20 -4 3 -4 -38z"/>
<path d="M2003 2540 c0 -41 2 -58 4 -37 2 20 2 54 0 75 -2 20 -4 3 -4 -38z"/>
<path d="M2233 2540 c0 -41 2 -65 4 -53 2 12 11 27 20 35 13 11 20 8 43 -20
38 -45 48 -40 11 6 l-30 39 27 26 c15 15 21 27 15 27 -6 0 -25 -16 -42 -35
-17 -19 -33 -35 -35 -35 -3 0 -7 19 -9 43 -2 23 -4 8 -4 -33z"/>
<path d="M2447 2590 c-51 -40 -23 -120 41 -120 33 0 72 36 72 67 0 55 -69 87
-113 53z m89 -28 c16 -31 7 -61 -22 -74 -54 -25 -107 40 -68 83 25 27 74 22
90 -9z"/>
<path d="M2641 2603 c-1 -17 50 -133 59 -133 10 0 62 121 55 128 -2 3 -14 -18
-26 -46 -12 -29 -25 -52 -28 -52 -4 0 -18 26 -33 58 -14 31 -26 52 -27 45z"/>
<path d="M3255 2598 c-28 -16 -35 -28 -35 -65 0 -24 7 -37 24 -48 28 -19 77
-16 84 3 3 11 1 11 -17 0 -18 -11 -26 -11 -49 2 -57 32 -31 106 35 98 37 -4
45 6 11 16 -29 7 -29 7 -53 -6z"/>
<path d="M3433 2540 c0 -41 2 -60 4 -42 4 31 6 32 48 32 42 0 44 -1 48 -32 2
-18 4 1 4 42 0 41 -2 60 -4 43 -4 -32 -6 -33 -48 -33 -42 0 -44 1 -48 33 -2
17 -4 -2 -4 -43z"/>
<path d="M3652 2555 c-2 -68 8 -85 49 -85 37 0 59 33 59 87 0 61 -18 54 -22
-8 -2 -36 -8 -55 -20 -63 -32 -20 -52 4 -59 70 l-6 59 -1 -60z"/>
<path d="M1230 2535 c0 -77 18 -88 22 -13 l3 52 40 -52 c21 -29 43 -52 47 -52
4 0 8 29 8 65 0 37 -4 65 -10 65 -5 0 -10 -21 -10 -47 l-1 -48 -40 48 c-23 26
-45 47 -50 47 -5 0 -9 -29 -9 -65z"/>
<path d="M2864 2543 c-14 -32 -28 -61 -31 -65 -2 -5 0 -8 6 -8 5 0 13 9 16 20
5 15 15 20 45 20 30 0 40 -5 45 -20 3 -11 10 -20 15 -20 12 0 -47 124 -60 128
-6 2 -22 -23 -36 -55z m55 7 c10 -29 9 -30 -20 -30 -33 0 -33 0 -17 35 15 33
24 32 37 -5z"/>
<path d="M3050 2535 l0 -65 48 2 c43 1 44 2 10 5 l-38 4 0 60 c0 33 -4 59 -10
59 -6 0 -10 -28 -10 -65z"/>
<path d="M3860 2535 c0 -37 4 -65 10 -65 6 0 10 8 10 18 0 10 5 23 12 30 9 9
20 5 46 -20 24 -23 31 -27 24 -12 -6 11 -18 26 -26 34 -21 17 -20 29 6 59 13
14 4 8 -20 -14 l-42 -39 0 37 c0 20 -4 37 -10 37 -6 0 -10 -28 -10 -65z"/>
<path d="M1356 2337 c-59 -77 -75 -188 -41 -275 21 -52 95 -119 142 -128 63
-12 165 1 218 29 58 29 134 105 165 166 24 49 60 182 59 220 l-1 26 -7 -25
c-5 -14 -14 -50 -21 -80 -24 -105 -88 -209 -154 -250 -79 -48 -198 -41 -256
15 -64 62 -78 190 -31 282 11 23 21 45 21 48 0 3 -16 5 -34 5 -28 0 -40 -7
-60 -33z"/>
<path d="M2005 2308 c100 -258 96 -313 -27 -343 -49 -12 -37 -13 152 -13 182
0 201 1 174 13 -62 28 -100 91 -178 303 l-39 102 -53 0 -53 0 24 -62z"/>
<path d="M2499 1965 c-3 -225 -4 -412 -2 -414 11 -16 13 50 11 415 l-3 409 -6
-410z"/>
<path d="M2847 2363 c-4 -3 -7 -70 -8 -147 -1 -181 -10 -214 -69 -243 l-44
-23 169 1 c162 1 168 2 133 16 -60 25 -71 61 -76 246 l-4 157 -48 0 c-25 0
-50 -3 -53 -7z"/>
<path d="M3220 2365 c0 -14 253 -386 272 -399 17 -12 47 -16 128 -15 l105 1
-43 15 c-68 24 -144 103 -249 259 l-97 144 -58 0 c-32 0 -58 -2 -58 -5z"/>
</g>
</svg>
