<svg width="60" height="60">
    <path d="m148.218 114.81-.565 1.694 1.835-.564.141-.283 19.335-72.399c.14-.847.846-2.258 1.834-2.258h20.323c.988 0 1.835.988 1.976 1.835l19.476 72.963a.437.437 0 0 1 .14.283l3.952 1.27c.988.282 1.835 1.552 1.835 2.54v14.113c0 1.13-1.129 2.54-2.4 2.54h-25.967c-1.411 0-2.258-1.552-2.4-2.681v-2.54c0-3.67 0-7.34.142-11.008 0-1.13.423-2.4 1.552-2.823l2.54-.847.142-.141-2.54-9.456s-10.02 0-14.396-.14H171.081l-.565 2.822v.141l.565-.565h2.399l-3.246 2.4c-.141.14-.141.14-.141.282l-.424 2.117v.282l6.633-4.94h2.258l-9.173 6.916 1.835.706 10.302-7.621h2.117l-10.443 7.903h-1.27c.846.423 1.552 1.411 1.552 2.54v13.972c0 1.129-.988 2.681-2.258 2.681h-25.968c-1.27 0-2.258-1.552-2.258-2.681V119.89c-.847 0-1.694.847-1.976 1.553-.141.14-.141.423-.282.564l-2.682 1.976.565-2.117s.141 0 .141-.141l9.315-6.916h.14zm13.407-63.508-5.08 3.81c0-.281.423-1.552.423-1.834l.14-.282 2.259-1.694h2.258zm-5.927 6.633 9.032-6.633h.423l-.423 1.694-9.597 7.056zm-1.13 4.94 9.315-7.056-.564 2.116-9.456 7.057v-.141s.423-1.27.706-1.976zm7.48 0-9.455 7.056.564-1.975v-.141l9.315-6.916.14-.14zm23.287 24.698-4.658-22.299-1.41 6.492v.282c0 .283.281.988.281 1.27-.282.142-.846.283-.846.706l-.565 2.54 1.835-1.41.282 1.41c0 .142 0 .142-.141.142l-2.54 1.975-.565 2.682 3.67-2.823.282 1.553-4.375 3.246c-.141 0-.141.14-.141.14l-.565 2.541 5.504-3.951c0 .282.282 1.129.282 1.41l-.14.142-5.505 4.093h2.964l3.105-2.258.282 1.41c-.141.142-.847.707-.988.707h3.952zm-24.698-19.758-9.314 7.056v-.141s.423-1.976.564-1.976l9.173-6.915.142-.141c0 .282-.424 1.693-.565 2.117zm-1.27 4.939-9.456 7.056s.424-1.41.565-2.116l9.455-7.057c0 .141-.423 1.976-.564 2.117zM148.64 84.75l.565-2.117 9.455-7.198-.564 2.117v.142l-9.315 6.915zm-1.27 4.657.423-1.834 9.456-7.057-.423 1.835zm-.706 2.823 9.456-7.057-.565 2.117-9.455 7.057.423-1.976c0-.141.141-.141.141-.141zm-1.27 4.94 9.315-7.057s-.283 1.411-.565 2.117l-9.455 7.056c0-.14.564-1.976.705-2.117zm-1.411 4.939 9.456-7.057v.142s-.424 1.27-.565 1.975l-9.456 7.057c0-.282.424-1.694.565-2.117zm-1.27 4.94 9.455-7.057-.564 2.117-9.597 7.056zm-1.412 4.939 9.456-7.057v.142s-.282 1.27-.564 1.975l-9.456 7.057zm34.86 5.363 10.443-7.903h.705l.142.987v.142l-9.738 7.338c0-.14-.141-.423-.141-.564h-1.412zm-36.13-.565 9.456-7.056-.565 2.258-9.455 7.056v-.14l.564-1.977v-.14zm38.246 2.823 9.597-7.057c.282.283.565 1.13.565 1.13v.14l-9.88 7.34c-.14-.283-.282-1.13-.282-1.553zm.988 3.246 9.597-7.198.423 1.27c0 .142 0 .142-.14.283l-9.739 7.197-.282-1.27c0-.141 0-.141.141-.282zm.706 3.528c0-.141.14-.141.14-.141l5.505-4.093c0 .565-.141 1.13-.141 1.694l-9.597 7.197v-.282c0-.423 0-1.411.423-1.693.283-.283 1.553-1.27 2.117-1.553l1.694-.706zM131 131.463l9.738-7.197v1.694L131 133.298v-1.834zm44.738 1.835h.141l9.597-7.197v1.693l-9.738 7.34v-1.836zm-42.621-5.504-1.694 1.13c.283-.424.988-1.13 1.694-1.13zM131 135.415l9.738-7.197v1.693L131 137.25v-1.835zm44.738 1.835h.141l9.597-7.198v1.694l-9.738 7.339v-1.835zM131 141.06v-1.693l9.456-7.057c.14 0 .14-.14.282-.14v1.693zm44.738.283v-.141l9.738-7.198v1.552c0 .142-.141.142-.282.283l-9.456 7.197v-1.693zM131 143.319l9.738-7.198c0 .423.282.988.282 1.411l-9.879 7.339c-.141-.282-.141-.847-.141-1.13v-.422zm45.02 1.693 9.738-7.339h.141c.282.424.565.565.988.988l-10.161 7.48c-.141 0-.706-.847-.706-1.129zm-43.75 1.411 10.02-7.62c.706 0 1.412.14 1.976.14l-10.443 7.904h-.283c-.564 0-.988-.141-1.27-.424zm4.516.424 10.444-7.903h2.399l-10.585 7.903h-2.258zm5.222 0 10.585-7.903h2.258l-10.585 7.903h-2.258zm7.621 0h-2.258l10.444-7.903h2.258zm29.214 0 10.584-7.903h2.258l-10.584 7.903h-2.258zm7.62 0h-2.257l10.443-7.903h2.258zm5.222 0h-2.258l10.444-7.903h2.258zm2.964 0 10.444-7.903h1.411v.564l-9.738 7.339h-2.117zm-39.798 0h-2.258l9.032-6.774v1.693zm47.137 0h-2.258l6.774-5.08v1.693zm-42.621 0h-1.552l3.81-2.823c0 1.13-.988 2.823-2.258 2.823z" fill="#d7eef2"/>
</svg>
