<svg width="481" height="146" viewBox="0 0 481 146" fill="none" xmlns="http://www.w3.org/2000/svg">
<path d="M159.145 52.6946L176.425 14.8946H180.367L197.647 52.6946H193.435L177.559 17.2166H179.179L163.303 52.6946H159.145ZM165.949 42.5966L167.137 39.3566H189.115L190.303 42.5966H165.949ZM217.563 24.0746C219.867 24.0746 221.883 24.5246 223.611 25.4246C225.375 26.2886 226.743 27.6206 227.715 29.4206C228.723 31.2206 229.227 33.4886 229.227 36.2246V52.6946H225.393V36.6026C225.393 33.6146 224.637 31.3646 223.125 29.8526C221.649 28.3046 219.561 27.5306 216.861 27.5306C214.845 27.5306 213.081 27.9446 211.569 28.7726C210.093 29.5646 208.941 30.7346 208.113 32.2826C207.321 33.7946 206.925 35.6306 206.925 37.7906V52.6946H203.091V24.3446H206.763V32.1206L206.169 30.6626C207.069 28.6106 208.509 27.0086 210.489 25.8566C212.469 24.6686 214.827 24.0746 217.563 24.0746ZM250.869 52.9646C248.169 52.9646 245.739 52.3526 243.579 51.1286C241.455 49.9046 239.781 48.2126 238.557 46.0526C237.333 43.8566 236.721 41.3366 236.721 38.4926C236.721 35.6126 237.333 33.0926 238.557 30.9326C239.781 28.7726 241.455 27.0986 243.579 25.9106C245.739 24.6866 248.169 24.0746 250.869 24.0746C253.353 24.0746 255.567 24.6326 257.511 25.7486C259.491 26.8646 261.057 28.5026 262.209 30.6626C263.397 32.7866 263.991 35.3966 263.991 38.4926C263.991 41.5526 263.415 44.1626 262.263 46.3226C261.111 48.4826 259.545 50.1386 257.565 51.2906C255.621 52.4066 253.389 52.9646 250.869 52.9646ZM251.139 49.5626C253.155 49.5626 254.955 49.1126 256.539 48.2126C258.159 47.2766 259.419 45.9806 260.319 44.3246C261.255 42.6326 261.723 40.6886 261.723 38.4926C261.723 36.2606 261.255 34.3166 260.319 32.6606C259.419 31.0046 258.159 29.7266 256.539 28.8266C254.955 27.8906 253.155 27.4226 251.139 27.4226C249.159 27.4226 247.377 27.8906 245.793 28.8266C244.209 29.7266 242.949 31.0046 242.013 32.6606C241.077 34.3166 240.609 36.2606 240.609 38.4926C240.609 40.6886 241.077 42.6326 242.013 44.3246C242.949 45.9806 244.209 47.2766 245.793 48.2126C247.377 49.1126 249.159 49.5626 251.139 49.5626ZM261.831 52.6946V44.1626L262.209 38.4386L261.669 32.7146V12.6266H265.503V52.6946H261.831ZM276.18 52.6946V24.3446H279.852V32.0666L279.474 30.7166C280.266 28.5566 281.598 26.9186 283.47 25.8026C285.342 24.6506 287.664 24.0746 290.436 24.0746V27.8006C290.292 27.8006 290.148 27.8006 290.004 27.8006C289.86 27.7646 289.716 27.7466 289.572 27.7466C286.584 27.7466 284.244 28.6646 282.552 30.5006C280.86 32.3006 280.014 34.8746 280.014 38.2226V52.6946H276.18ZM297.432 52.6946V24.3446H301.266V52.6946H297.432ZM299.376 18.0806C298.584 18.0806 297.918 17.8106 297.378 17.2706C296.838 16.7306 296.568 16.0826 296.568 15.3266C296.568 14.5706 296.838 13.9406 297.378 13.4366C297.918 12.8966 298.584 12.6266 299.376 12.6266C300.168 12.6266 300.834 12.8786 301.374 13.3826C301.914 13.8866 302.184 14.5166 302.184 15.2726C302.184 16.0646 301.914 16.7306 301.374 17.2706C300.87 17.8106 300.204 18.0806 299.376 18.0806ZM311.934 52.6946V24.3446H315.768V52.6946H311.934ZM313.878 18.0806C313.086 18.0806 312.42 17.8106 311.88 17.2706C311.34 16.7306 311.07 16.0826 311.07 15.3266C311.07 14.5706 311.34 13.9406 311.88 13.4366C312.42 12.8966 313.086 12.6266 313.878 12.6266C314.67 12.6266 315.336 12.8786 315.876 13.3826C316.416 13.8866 316.686 14.5166 316.686 15.2726C316.686 16.0646 316.416 16.7306 315.876 17.2706C315.372 17.8106 314.706 18.0806 313.878 18.0806Z" fill="white"/>
<path d="M32.3093 108.642L32.0513 100.902L68.5153 63.4056H75.8253L49.2513 91.2696L45.6393 95.1396L32.3093 108.642ZM26.8053 123.606V63.4056H33.1693V123.606H26.8053ZM70.0633 123.606L44.0913 93.6776L48.3913 89.0336L77.6313 123.606H70.0633ZM102.96 124.036C98.603 124.036 94.6757 123.061 91.1784 121.112C87.7384 119.105 85.015 116.382 83.0084 112.942C81.0017 109.444 79.9984 105.46 79.9984 100.988C79.9984 96.4583 81.0017 92.4736 83.0084 89.0336C85.015 85.5936 87.7384 82.8989 91.1784 80.9496C94.6184 79.0003 98.5457 78.0256 102.96 78.0256C107.432 78.0256 111.388 79.0003 114.828 80.9496C118.326 82.8989 121.049 85.5936 122.998 89.0336C125.005 92.4736 126.008 96.4583 126.008 100.988C126.008 105.46 125.005 109.444 122.998 112.942C121.049 116.382 118.326 119.105 114.828 121.112C111.331 123.061 107.375 124.036 102.96 124.036ZM102.96 118.618C106.228 118.618 109.124 117.901 111.646 116.468C114.169 114.977 116.147 112.913 117.58 110.276C119.071 107.581 119.816 104.485 119.816 100.988C119.816 97.4329 119.071 94.3369 117.58 91.6996C116.147 89.0623 114.169 87.0269 111.646 85.5936C109.124 84.1029 106.257 83.3576 103.046 83.3576C99.8357 83.3576 96.969 84.1029 94.4464 85.5936C91.9237 87.0269 89.917 89.0623 88.4264 91.6996C86.9357 94.3369 86.1904 97.4329 86.1904 100.988C86.1904 104.485 86.9357 107.581 88.4264 110.276C89.917 112.913 91.9237 114.977 94.4464 116.468C96.969 117.901 99.807 118.618 102.96 118.618ZM148.825 123.606L128.787 78.4556H135.151L153.555 120.338H150.545L169.207 78.4556H175.227L155.103 123.606H148.825ZM210.776 123.606V113.63L210.518 111.996V95.3116C210.518 91.4703 209.429 88.5176 207.25 86.4536C205.129 84.3896 201.947 83.3576 197.704 83.3576C194.78 83.3576 191.999 83.8449 189.362 84.8196C186.725 85.7943 184.489 87.0843 182.654 88.6896L179.902 84.1316C182.195 82.1823 184.947 80.6916 188.158 79.6596C191.369 78.5703 194.751 78.0256 198.306 78.0256C204.154 78.0256 208.655 79.4876 211.808 82.4116C215.019 85.2783 216.624 89.6643 216.624 95.5696V123.606H210.776ZM195.21 124.036C191.827 124.036 188.875 123.491 186.352 122.402C183.887 121.255 181.995 119.707 180.676 117.758C179.357 115.751 178.698 113.458 178.698 110.878C178.698 108.527 179.243 106.406 180.332 104.514C181.479 102.564 183.313 101.016 185.836 99.8696C188.416 98.6656 191.856 98.0636 196.156 98.0636H211.722V102.622H196.328C191.971 102.622 188.932 103.396 187.212 104.944C185.549 106.492 184.718 108.412 184.718 110.706C184.718 113.286 185.721 115.35 187.728 116.898C189.735 118.446 192.544 119.22 196.156 119.22C199.596 119.22 202.549 118.446 205.014 116.898C207.537 115.292 209.371 112.999 210.518 110.018L211.894 114.232C210.747 117.213 208.741 119.592 205.874 121.37C203.065 123.147 199.51 124.036 195.21 124.036ZM233.209 123.606V59.7936H239.315V123.606H233.209ZM275.052 124.036C270.58 124.036 266.567 123.061 263.012 121.112C259.515 119.105 256.763 116.382 254.756 112.942C252.75 109.444 251.746 105.46 251.746 100.988C251.746 96.4583 252.75 92.4736 254.756 89.0336C256.763 85.5936 259.515 82.8989 263.012 80.9496C266.567 79.0003 270.58 78.0256 275.052 78.0256C278.894 78.0256 282.362 78.7709 285.458 80.2616C288.554 81.7523 290.991 83.9883 292.768 86.9696L288.21 90.0656C286.662 87.7723 284.742 86.0809 282.448 84.9916C280.155 83.9023 277.661 83.3576 274.966 83.3576C271.756 83.3576 268.86 84.1029 266.28 85.5936C263.7 87.0269 261.665 89.0623 260.174 91.6996C258.684 94.3369 257.938 97.4329 257.938 100.988C257.938 104.542 258.684 107.638 260.174 110.276C261.665 112.913 263.7 114.977 266.28 116.468C268.86 117.901 271.756 118.618 274.966 118.618C277.661 118.618 280.155 118.073 282.448 116.984C284.742 115.894 286.662 114.232 288.21 111.996L292.768 115.092C290.991 118.016 288.554 120.252 285.458 121.8C282.362 123.29 278.894 124.036 275.052 124.036ZM327.14 78.0256C330.809 78.0256 334.02 78.7423 336.772 80.1756C339.581 81.5516 341.76 83.6729 343.308 86.5396C344.913 89.4063 345.716 93.0183 345.716 97.3756V123.606H339.61V97.9776C339.61 93.2189 338.406 89.6356 335.998 87.2276C333.647 84.7623 330.322 83.5296 326.022 83.5296C322.811 83.5296 320.002 84.1889 317.594 85.5076C315.243 86.7689 313.408 88.6323 312.09 91.0976C310.828 93.5056 310.198 96.4296 310.198 99.8696V123.606H304.092V59.7936H310.198V90.8396L308.994 88.5176C310.427 85.2496 312.72 82.6983 315.874 80.8636C319.027 78.9716 322.782 78.0256 327.14 78.0256ZM380.871 124.036C377.029 124.036 373.675 123.319 370.809 121.886C367.942 120.452 365.706 118.302 364.101 115.436C362.553 112.569 361.779 108.986 361.779 104.686V78.4556H367.885V103.998C367.885 108.814 369.06 112.454 371.411 114.92C373.819 117.328 377.173 118.532 381.473 118.532C384.626 118.532 387.349 117.901 389.643 116.64C391.993 115.321 393.771 113.429 394.975 110.964C396.236 108.498 396.867 105.546 396.867 102.106V78.4556H402.973V123.606H397.125V111.222L398.071 113.458C396.637 116.783 394.401 119.392 391.363 121.284C388.381 123.118 384.884 124.036 380.871 124.036ZM424.806 111.91L424.978 104.084L453.1 78.4556H460.582L440.716 97.4616L437.276 100.386L424.806 111.91ZM419.99 123.606V59.7936H426.096V123.606H419.99ZM454.992 123.606L436.158 100.128L440.114 95.3976L462.474 123.606H454.992Z" fill="white"/>
</svg>
